<?xml version="1.0" encoding="UTF-8"?>
<svg id="Layer_2" data-name="Layer 2" xmlns="http://www.w3.org/2000/svg" width="732.6" height="679.3" viewBox="0 0 732.6 679.3">
  <defs>
    <style>
      .cls-1 {
        fill: #3d254c;
      }

      .cls-2 {
        fill: #563e63;
      }

      .cls-3 {
        fill: #7d6a8b;
      }

      .cls-4 {
        fill: #3f254f;
      }

      .cls-5 {
        fill: #472f56;
      }

      .cls-6 {
        fill: #472e56;
      }
    </style>
  </defs>
  <g id="Layer_1-2" data-name="Layer 1">
    <g>
      <path class="cls-4" d="M239.7,678.9H53.1c-6.3.2-10-2.5-11.1-7.4s2.1-11.8,9-11.7l189,.2c10.9.7,9.7,17.8-.3,19Z"/>
      <path class="cls-3" d="M294.6,231.6l-1.1-3.1c7.8-6.4,11.8-14.8,21.9-20.5l-20.8,23.6Z"/>
      <path class="cls-1" d="M687,441.3s-22.1,0-22.1,0c-5-.6-4.8-5.7,0-6.3,0,0,20.9-.2,20.9-.2,4.5-.4,6.3,5.7,1.2,6.5Z"/>
      <path class="cls-2" d="M658.3,438c0,5.7-8.8,5.7-8.7,0,0-5.7,8.8-5.7,8.7,0Z"/>
      <path class="cls-4" d="M732.5,437.5c-.5-23.2-25.3-23.4-42.1-23.2l-.7-65c-.7-25.6-22.8-29-43.8-28.1-7.3-187.4,40.4-182.4-142.1-180.6,6.2-23.5,50.8-127.3,37.9-140.6-68.8,6.1-137,39.8-196.7,75.4-15.7,10.1-23.3,27.4-30.9,42.5l-1.7-12.3c-2.5-18.1-39,19-58.8,35l-165.1.2c-21.8,0-40,17.5-40,40.2,3.3,24.8-9.6,339.9,7.9,352.8-22.2,44.5-40.6,88.4-56.4,134.6-1.7,11.6,13,14.3,18.8,5.9,0,0,58.6-61.1,58.6-61.1,6.4-23,14.8-43.9,25.5-64.8h173.3c-10.1,79.3-37.2,45.3-40,66.4,0,5.3,3.1,10.2,11.2,10.2h198.6c0,21.7-3.3,53.1,27.6,53.5,0,0,234.8,0,234.8,0,12.4,0,24-9.9,24-22.8v-218.3ZM627.4,320.2c-3.2,1.6-6.7,1.5-11.6.8v-140.1c0-4.6-2.7-8.9-7.9-8.9l-119.8.3c1-5,3.6-8.4,7.1-12.6,177.7.9,122.9-24.6,132.2,160.6ZM292.1,132.4l-3.4,35.8c-.6,6,2.5,10.7,7.6,12.2,5.4,1.5,10.7-2.1,13.4-8,9.4-20.1,17.5-40.1,28.4-59.5,29.5-47.4,131.6-76.3,185-91.4-22.4,58.8-27.3,133.6-83.3,167.9-28.8,18.2-59.8,32.2-92.7,41.7-5.6,1.6-8.3,4.4-8.3,9.7-1.8,20.8,78.3-2.1,93.3-3.5-25.1,37.6-70.8,105.1-106.8,119.2-35.6,13.9-71.7,22.7-108.4,32.2-4.1,1.1-6.6,5.3-7.5,8.4-4.6,17.8,60.4,10.4,73.4,11.2-42.7,37.1-93.4,64.4-148.1,79.6,79.7-142.8,182.9-269.9,304.2-379.7,5.3-4.7,5.5-9.9,3.9-13.5-1.8-3.8-7.7-6.1-12.4-3-138.8,91.1-243.1,223.5-330.7,363.4,3-49.3,15.4-94.9,34.2-138.4l9.9,27.6c3,10.1,17.8,9.2,18.7-1.7,2.1-26.4,5.6-51.9,12.7-77.3,11-39.8,81.4-102,116.8-132.8ZM97.5,356.3l-.4-165.9h106.2c-23.8,27.2-50.6,59.1-52.2,96.4-2.1-6.4-2.7-10.9-7.4-12.7-4.6-1.8-10.3.3-12.1,6.3-14,24.6-23.8,50-34,76ZM67.4,181c0-11.6,7.7-21,19.5-21.1l146.8-.2-11.9,11.9-133,.4c-6.1,0-9.9,3-9.9,10.5v283.8c-4.4,1.5-7.5,1.3-11.5-.1V181ZM82.1,486.4l-13.5,22.9-.9-23.4c4.8-.4,7.9-.8,14.5.6ZM60.2,602.3c-5.5,9.8-15.7,17.9-25.6,26.6,56.2-141.4,158.7-302.5,260-397.4-95.6,111.2-181.4,233.1-234.4,370.8ZM113.7,529.1l9.6-20c26.6-4,50.6-11.9,75-23.6h248.2c0,.1,0,43.8,0,43.8l-332.7-.2ZM277.5,605.7c11.1-17.7,17.1-36,18-57.3h104c1.4,21.1,7.2,39.3,17.8,57.2h-139.8ZM445.8,607.8c-18.7-13.9-24.6-37-27.4-59.1l28.3-.2-.9,59.4ZM446.8,466.9l-209.9-.5c30.5-19.5,57.6-40.3,82.5-65.5,2.9-2.9,2.1-7.3,1.1-9.7-3.3-8.3-11.9-2.4-19.5-5.5l39.3-14.5c34.4-12.8,98.9-107,121.9-146.8,2.4-4.2,2.6-7.9.9-10.8-5.9-9.5-13.2-1.1-21.8-2.1,10.2-6.7,19.9-12.4,28.8-21.6l127.1.9-.2,130.7c-173.6,4.7-149.5-33.8-150.2,145.6ZM474.8,663.3c-7.2,0-12.7-4.7-12.6-11.4,1.5-8.5.2-249.4.6-267,0,0-.5-39-.5-39,0-5.1,5.6-9.3,11.4-9.3l184.6-.2c8.9,0,15.5,5.5,15.2,14.7l-2,65c-5.8-17.3-1.1-33.4-2.1-50.3,0-3.6-2.8-7.2-6.9-7.2h-186.9c-4.7,0-8.9,2.1-9.3,6.7-3.8,46.6,1.3,92.5-.3,137.8.2,39,0,94.4.1,133.2l137.9.4c.2,9.3-.4,16.8,2.7,26.9l-132-.4ZM604.4,441.8v181.1c-.1,0-124.7,0-124.7,0v-250.8s176.4,0,176.4,0v42.3c0,0-27,.7-27,.7-16.2.4-24.7,11.7-24.7,26.7ZM633.2,430s73.7.1,73.7.1c4.8,0,7.9,2.5,9.5,5.1,1.4,2.2,2.2,10.6-.7,10.6l-94.7.5c-3.7-10,1.6-17.3,12.2-16.3ZM717.4,459.9v166.1h-96.9v-166.1h96.9ZM667.6,661.8h-38.5c-8.7.1-10.5-14.6-7.2-21.1l46,.7c-10.9,4.2-10.9,16.6-.2,20.4ZM711.6,661.1c-13.8,4.1-27,.5-39,.7,10.9-5.2,10-16.2-.4-20.4l43.9-.7c2.4,4.5,2.6,18.2-4.5,20.4Z"/>
      <path class="cls-6" d="M577.1,649.7c.2,12.8-19.9,12.8-19.7,0-.2-12.8,19.9-12.8,19.7,0Z"/>
      <path class="cls-5" d="M572.9,347.4c.1,7.1-11,7.1-10.9,0-.1-7.1,11-7.1,10.9,0Z"/>
    </g>
  </g>
</svg>